<?xml version="1.0" encoding="utf-8"?>
<!-- Generator: Adobe Illustrator 27.0.1, SVG Export Plug-In . SVG Version: 6.00 Build 0)  -->
<svg version="1.1" id="Ebene_1" xmlns="http://www.w3.org/2000/svg" xmlns:xlink="http://www.w3.org/1999/xlink" x="0px" y="0px"
	 viewBox="0 0 107.9 19.7" style="enable-background:new 0 0 107.9 19.7;" xml:space="preserve">
<style type="text/css">
	.st0{fill:#E42313;}
</style>
<g>
	<path class="st0" d="M13.3,11.2c0,2.7-2,4.2-5.1,4.2H0V0.8h8.2c3.1,0,4.5,1.6,4.5,3.7c0,1.6-0.9,2.5-1.9,3v0.2
		C12,8,13.3,9,13.3,11.2z M3.4,6.5h4.4c1,0,1.5-0.6,1.5-1.5c0-0.9-0.6-1.5-1.5-1.5H3.4V6.5z M9.8,11C9.8,10,9.2,9.3,8,9.3H3.4v3.3H8
		C9.3,12.6,9.8,11.9,9.8,11z"/>
	<path class="st0" d="M16.2,19.5l0-2.5c0.4,0.1,0.8,0.1,1.1,0.1c1.1,0,2.1-0.4,2.6-1.3l0.2-0.5h-1.1L14.3,5h3.6l3.2,7.1h0.2l3-7.1
		h3.6l-4.8,11.4c-0.5,1.1-1.5,3.4-4.9,3.4C17.4,19.7,16.8,19.6,16.2,19.5z"/>
	<path class="st0" d="M28.4,11.9h3.3c0.2,0.9,1.1,1.3,2.5,1.3c1.2,0,1.8-0.2,1.8-0.8c0-0.5-0.5-0.7-1.8-0.9l-2.1-0.3
		c-2-0.3-3.3-1.1-3.3-3c0-2.2,2.2-3.4,4.9-3.4c3.5,0,5.1,1.5,5.4,3.4h-3.4c-0.2-0.6-0.7-1-2-1c-1.1,0-1.6,0.2-1.6,0.7
		c0,0.5,0.6,0.6,1.7,0.8l2.2,0.3c2.4,0.4,3.4,1.6,3.4,3.2c0,2.2-2.2,3.2-5.2,3.2C30.5,15.6,28.6,14.2,28.4,11.9z"/>
	<path class="st0" d="M43,12.1V7.6h-2.6V5h1c1.3,0,1.8-0.5,1.8-1.6V2h3.1V5h3.3v2.6h-3.3v3.9c0,0.6,0.1,1.4,1.6,1.4
		c0.3,0,0.8,0,1.2-0.1v2.5c-0.6,0.1-1.4,0.2-2.2,0.2C44,15.6,43,14,43,12.1z"/>
	<path class="st0" d="M51.3,5h3.1l0.3,1.5h0.2c0.9-1.2,1.7-1.7,3.6-1.7h1v3.4C59,8,58.5,8,58,8c-2.3,0-3.4,1.4-3.4,3.3v4.1h-3.4V5z"
		/>
	<path class="st0" d="M60.5,10.2c0-3.3,2.8-5.4,6.6-5.4c3.8,0,6.6,2.1,6.6,5.4c0,3.3-2.7,5.4-6.6,5.4C63.3,15.6,60.5,13.4,60.5,10.2
		z M70.4,10.2c0-1.4-1.1-2.5-3.2-2.5c-2.1,0-3.2,1.1-3.2,2.5c0,1.4,1.2,2.5,3.2,2.5C69.2,12.7,70.4,11.6,70.4,10.2z"/>
	<path class="st0" d="M75.6,5h3.1l0.3,1.2h0.2c0.7-0.8,1.9-1.5,3.7-1.5c3.2,0,5.1,1.9,5.1,4.8v5.8h-3.4v-5c0-1.8-1.1-2.7-2.8-2.7
		c-1.7,0-2.9,0.9-2.9,2.7v5h-3.4V5z"/>
	<path class="st0" d="M89.8,2c0-1.1,0.9-2,2-2s1.9,0.9,1.9,2c0,1-0.9,2-1.9,2S89.8,3,89.8,2z M90.1,5h3.4v10.4h-3.4V5z"/>
	<path class="st0" d="M95.2,10.2c0-3.4,2.8-5.5,6.5-5.5c3,0,5.8,1.3,6.2,4.3h-3.4c-0.3-0.8-1.4-1.4-2.8-1.4c-1.8,0-3.1,1-3.1,2.6
		c0,1.6,1.2,2.4,3.1,2.4c1.4,0,2.4-0.3,2.8-1.1h3.4c-0.4,2.5-2.7,4-6.2,4C97.8,15.6,95.2,13.4,95.2,10.2z"/>
</g>
</svg>
