<svg xmlns="http://www.w3.org/2000/svg" xmlns:xlink="http://www.w3.org/1999/xlink" viewBox="0 0 504.56 104.88">
    <defs>
        <linearGradient id="Neues_Verlaufsfeld_1" x1="178.96" y1="298.28" x2="263.77" y2="298.28" gradientUnits="userSpaceOnUse">
            <stop offset="0" stop-color="#0062a7"/>
            <stop offset="1" stop-color="#9fb7db"/>
        </linearGradient>
    </defs>
    <path fill="#0062a7" d="M221.36,267.36a33.86,33.86,0,0,0-12.77,12,21.53,21.53,0,0,1,12.77-3.91,39.9,39.9,0,0,1,30.85,65.2,52.44,52.44,0,0,0,21.59-42.41C273.8,271.37,244.92,254.34,221.36,267.36Z" transform="translate(-168.93 -245.84)"/>
    <path fill="#9fb7db" d="M234.13,317.17a21.53,21.53,0,0,1-12.77,3.91,39.9,39.9,0,0,1-30.85-65.2,52.44,52.44,0,0,0-21.59,42.41,35.34,35.34,0,0,0,65.2,18.89Z" transform="translate(-168.93 -245.84)"/>
    <path fill="url(#Neues_Verlaufsfeld_1)" d="M252.21,340.69A52.44,52.44,0,0,1,179,329.13a39.9,39.9,0,0,0,65.2-30.85,22.8,22.8,0,0,0-22.8-22.8,39.9,39.9,0,0,1,30.85,65.2Zm11.56-73.25a52.44,52.44,0,0,0-73.25-11.56,39.9,39.9,0,0,0,30.85,65.2,22.8,22.8,0,0,1-22.8-22.8,39.9,39.9,0,0,1,65.2-30.85Z" transform="translate(-168.93 -245.84)"/>
    <path d="M548.76,306.79v9.37a1.3,1.3,0,0,0,.39,1l26.08,27.48a1.29,1.29,0,0,0,1,.44H588a1.42,1.42,0,0,0,1-2.39l-25-26.39c27.41-4.51,37-39,15.81-57s-53.7-2.93-53.7,24.85v59.53a1.42,1.42,0,0,0,1.42,1.42H536a1.42,1.42,0,0,0,1.42-1.42V284.11c0-18.94,22.9-28.43,36.29-15s3.91,36.29-15,36.29h-8.5A1.42,1.42,0,0,0,548.76,306.79Z" transform="translate(-168.93 -245.84)"/>
    <path d="M640.89,251.51a32.6,32.6,0,0,0-32.6,32.6v59.53a1.42,1.42,0,0,0,1.42,1.42h8.5a1.42,1.42,0,0,0,1.42-1.42V316.71h42.52v26.93a1.42,1.42,0,0,0,1.42,1.42h8.5a1.42,1.42,0,0,0,1.42-1.42V284.11A32.6,32.6,0,0,0,640.89,251.51Zm21.26,53.86H619.63V284.11a21.26,21.26,0,0,1,42.52,0Z" transform="translate(-168.93 -245.84)"/>
    <path d="M460.89,343.64V284.11a32.6,32.6,0,0,1,32.6-32.6h14.17a1.42,1.42,0,0,1,1.42,1.42v8.5a1.42,1.42,0,0,1-1.42,1.42H493.49a21.26,21.26,0,0,0-21.26,21.26v21.26h24.09a1.42,1.42,0,0,1,1.42,1.42v8.5a1.42,1.42,0,0,1-1.42,1.42H472.23v26.93a1.42,1.42,0,0,1-1.42,1.42h-8.5A1.42,1.42,0,0,1,460.89,343.64Z" transform="translate(-168.93 -245.84)"/>
    <path d="M415.53,345.06H407a1.42,1.42,0,0,1-1.42-1.42V323.18a31.73,31.73,0,0,0-2.47-12.44l-23.65-57.26a1.42,1.42,0,0,1,1.31-2H390a1.23,1.23,0,0,1,1.31.88l20,48.35,20-48.35a1.23,1.23,0,0,1,1.31-.88h9.2a1.42,1.42,0,0,1,1.31,2l-23.65,57.26A31.73,31.73,0,0,0,417,323.18v20.46A1.42,1.42,0,0,1,415.53,345.06Z" transform="translate(-168.93 -245.84)"/>
    <path d="M360.26,345.06h-8.5a1.42,1.42,0,0,1-1.42-1.42V316.71H307.82v26.93a1.42,1.42,0,0,1-1.42,1.42h-8.5a1.42,1.42,0,0,1-1.42-1.42V252.93a1.42,1.42,0,0,1,1.42-1.42h8.5a1.42,1.42,0,0,1,1.42,1.42v52.44h42.52V252.93a1.42,1.42,0,0,1,1.42-1.42h8.5a1.42,1.42,0,0,1,1.42,1.42v90.71A1.42,1.42,0,0,1,360.26,345.06Z" transform="translate(-168.93 -245.84)"/>
</svg>