<?xml version="1.0" encoding="UTF-8"?>
<svg width="138px" height="49px" viewBox="0 0 138 49" version="1.1" xmlns="http://www.w3.org/2000/svg" xmlns:xlink="http://www.w3.org/1999/xlink">
    <!-- Generator: Sketch 51.3 (57544) - http://www.bohemiancoding.com/sketch -->
    <title>Group 299</title>
    <desc>Created with Sketch.</desc>
    <defs></defs>
    <g id="Prima-Power" stroke="none" stroke-width="1" fill="none" fill-rule="evenodd">
        <g id="Case-history" transform="translate(-125.000000, -51.000000)">
            <g id="main-nav" transform="translate(0.000000, 30.000000)">
                <g id="Group-299" transform="translate(125.000000, 21.000000)">
                    <path d="M0.761935484,48.0909677 C0.761935484,48.0909677 9.80387097,48.0909677 9.80387097,28.9974194 L9.80387097,9.44419355 L30.0232258,9.44419355 C49.1135484,9.44419355 49.1135484,0.403870968 49.1135484,0.403870968 L0.761935484,0.403870968 L0.761935484,48.0909677 Z" id="Fill-275" fill="#007FBA"></path>
                    <path d="M15.8951613,28.9975806 C15.8951613,48.091129 24.9370968,48.091129 24.9370968,48.091129 L24.9370968,30.2427419 L42.0903226,47.3943548 C42.0903226,47.3943548 46.9177419,40.091129 35.4032258,27.7298387 C33.5806452,25.7701613 31.3967742,23.9120968 31.3967742,23.9120968 L49.1129032,23.9120968 C49.1129032,23.9120968 49.1129032,14.8717742 30.0241935,14.8717742 L15.8951613,14.8717742 L15.8951613,28.9975806 Z" id="Fill-277" fill="#E7792B"></path>
                    <path d="M58.0432258,25.0833871 C58.356129,25.0414516 58.7287097,25.001129 59.1577419,24.9575806 C59.5883871,24.9156452 60.0383871,24.8801613 60.5109677,24.8462903 C60.9819355,24.8156452 61.4529032,24.7898387 61.9254839,24.768871 C62.3948387,24.7479032 62.8512903,24.7382258 63.2916129,24.7382258 C64.4432258,24.7382258 65.54,24.8543548 66.5770968,25.0833871 C67.6141935,25.3140323 68.5254839,25.7124194 69.3109677,26.2769355 C70.0964516,26.8430645 70.7206452,27.5930645 71.1819355,28.5253226 C71.6416129,29.4575806 71.8722581,30.6269355 71.8722581,32.0301613 C71.8722581,33.4962903 71.6270968,34.7172581 71.1335484,35.6914516 C70.6416129,36.6656452 69.9916129,37.4479032 69.1851613,38.0333871 C68.3787097,38.6204839 67.4609677,39.0333871 66.4367742,39.2753226 C65.4093548,39.5172581 64.3609677,39.6366129 63.2916129,39.6366129 C62.8932258,39.6366129 62.5432258,39.6317742 62.2383871,39.6204839 C61.9351613,39.6108065 61.6045161,39.5833871 61.2496774,39.5430645 L61.2496774,47.7156452 C60.7464516,47.7769355 60.2109677,47.8075806 59.6464516,47.8075806 C59.3948387,47.8075806 59.1270968,47.8027419 58.8448387,47.7930645 C58.5609677,47.7817742 58.2948387,47.7559677 58.0432258,47.7156452 L58.0432258,25.0833871 Z M61.2496774,36.7446774 C61.5835484,36.7866129 61.8770968,36.818871 62.1287097,36.8398387 C62.3803226,36.8608065 62.7480645,36.8704839 63.2303226,36.8704839 C63.8787097,36.8704839 64.5222581,36.8027419 65.1625806,36.6656452 C65.8012903,36.5301613 66.3722581,36.285 66.8754839,35.9269355 C67.3770968,35.5720968 67.7803226,35.085 68.0851613,34.4656452 C68.39,33.8479032 68.5416129,33.0462903 68.5416129,32.0608065 C68.5416129,31.2027419 68.4093548,30.4785484 68.1480645,29.8930645 C67.8867742,29.3059677 67.523871,28.8333871 67.0641935,28.4769355 C66.6012903,28.1220968 66.0464516,27.8704839 65.3980645,27.7237097 C64.7464516,27.5769355 64.0464516,27.5027419 63.2916129,27.5027419 C62.5158065,27.5027419 61.8351613,27.535 61.2496774,27.5979032 L61.2496774,36.7446774 Z" id="Fill-279" fill="#807F83"></path>
                    <path d="M79.1841935,48.0909677 C77.9277419,48.0909677 76.826129,47.8764516 75.8841935,47.4474194 C74.9406452,47.0183871 74.1551613,46.4248387 73.526129,45.6716129 C72.8970968,44.9167742 72.4325806,44.0280645 72.1277419,43.0006452 C71.8229032,41.9732258 71.6712903,40.8635484 71.6712903,39.6683871 C71.6712903,38.4732258 71.8229032,37.3635484 72.1277419,36.336129 C72.4325806,35.3103226 72.8970968,34.4183871 73.526129,33.6635484 C74.1551613,32.9103226 74.9406452,32.3135484 75.8841935,31.8732258 C76.826129,31.4329032 77.9277419,31.2135484 79.1841935,31.2135484 C80.4406452,31.2135484 81.5406452,31.4329032 82.4858065,31.8732258 C83.426129,32.3135484 84.2132258,32.9103226 84.8422581,33.6635484 C85.4712903,34.4183871 85.9374194,35.3103226 86.2406452,36.336129 C86.543871,37.3635484 86.6970968,38.4732258 86.6970968,39.6683871 C86.6970968,40.8635484 86.543871,41.9732258 86.2406452,43.0006452 C85.9374194,44.0280645 85.4712903,44.9167742 84.8422581,45.6716129 C84.2132258,46.4248387 83.426129,47.0183871 82.4858065,47.4474194 C81.5406452,47.8764516 80.4406452,48.0909677 79.1841935,48.0909677 M79.1841935,45.6087097 C80.6309677,45.6087097 81.6987097,45.0845161 82.3906452,44.0377419 C83.0825806,42.9893548 83.426129,41.5329032 83.426129,39.6683871 C83.426129,37.8022581 83.0825806,36.3522581 82.3906452,35.3135484 C81.6987097,34.2780645 80.6309677,33.7587097 79.1841935,33.7587097 C77.7390323,33.7587097 76.6745161,34.2780645 75.993871,35.3135484 C75.3132258,36.3522581 74.9729032,37.8022581 74.9729032,39.6683871 C74.9729032,41.5329032 75.3132258,42.9893548 75.993871,44.0377419 C76.6745161,45.0845161 77.7390323,45.6087097 79.1841935,45.6087097" id="Fill-281" fill="#807F83"></path>
                    <path d="M87.5098387,31.5901613 C87.8033871,31.5482258 88.0953226,31.5159677 88.3904839,31.495 C88.6840323,31.4756452 88.9437097,31.4643548 89.1759677,31.4643548 C89.4695161,31.4643548 89.7662903,31.4756452 90.071129,31.495 C90.3743548,31.5159677 90.6420968,31.5482258 90.8727419,31.5901613 L94.0146774,44.761129 L97.5679032,31.5901613 C97.7985484,31.5482258 98.0485484,31.5159677 98.3227419,31.495 C98.5937097,31.4756452 98.8759677,31.4643548 99.171129,31.4643548 C99.5066129,31.4853226 99.7937097,31.5014516 100.034032,31.511129 C100.274355,31.5224194 100.513065,31.5482258 100.74371,31.5901613 L104.261452,44.5401613 L107.406613,31.5901613 C107.637258,31.5482258 107.86629,31.5159677 108.096935,31.495 C108.327581,31.4756452 108.579194,31.4643548 108.851774,31.4643548 C109.082419,31.4643548 109.338871,31.4756452 109.621129,31.495 C109.903387,31.5159677 110.19371,31.5482258 110.485645,31.5901613 L105.677581,47.7143548 C105.405,47.7562903 105.127581,47.7869355 104.84371,47.8079032 C104.561452,47.8304839 104.305,47.8401613 104.074355,47.8401613 C103.84371,47.8401613 103.592097,47.8304839 103.319516,47.8079032 C103.046935,47.7869355 102.774355,47.7562903 102.503387,47.7143548 L99.0453226,35.5191935 L95.4308065,47.7143548 C95.1356452,47.7562903 94.8501613,47.7869355 94.5662903,47.8079032 C94.2840323,47.8304839 94.0259677,47.8401613 93.7969355,47.8401613 C93.5662903,47.8401613 93.3082258,47.8304839 93.0259677,47.8079032 C92.7437097,47.7869355 92.4856452,47.7562903 92.255,47.7143548 L87.5098387,31.5901613 Z" id="Fill-283" fill="#807F83"></path>
                    <path d="M115.200968,40.4230645 C115.244516,42.1827419 115.699355,43.4714516 116.56871,44.2875806 C117.438065,45.1069355 118.721935,45.5133871 120.41871,45.5133871 C121.905806,45.5133871 123.321935,45.2537097 124.662258,44.7279032 C124.83,45.0424194 124.967097,45.4246774 125.071935,45.8762903 C125.175161,46.3262903 125.238065,46.7714516 125.259032,47.2117742 C124.56871,47.5053226 123.807419,47.7246774 122.98,47.8714516 C122.154194,48.0182258 121.236452,48.0908065 120.231613,48.0908065 C118.763871,48.0908065 117.505806,47.8875806 116.459032,47.4795161 C115.409032,47.0698387 114.546129,46.4940323 113.865484,45.748871 C113.184839,45.0069355 112.686452,44.1262903 112.371935,43.1101613 C112.059032,42.0940323 111.900968,40.9779032 111.900968,39.7617742 C111.900968,38.5682258 112.054194,37.4520968 112.357419,36.4133871 C112.660645,35.3779032 113.126774,34.4762903 113.755806,33.7117742 C114.384839,32.9472581 115.175161,32.3391935 116.128387,31.8891935 C117.081613,31.4375806 118.209032,31.2133871 119.507419,31.2133871 C120.617097,31.2133871 121.592903,31.4004839 122.43,31.7779032 C123.26871,32.1553226 123.970323,32.6746774 124.536452,33.3343548 C125.102581,33.9956452 125.531613,34.781129 125.825161,35.6908065 C126.11871,36.6037097 126.265484,37.5924194 126.265484,38.6617742 C126.265484,38.9553226 126.254194,39.265 126.234839,39.5891935 C126.212258,39.915 126.19129,40.1924194 126.171935,40.4230645 L115.200968,40.4230645 Z M123.184839,38.0956452 C123.184839,37.5101613 123.105806,36.948871 122.949355,36.4133871 C122.792903,35.881129 122.562258,35.4133871 122.257419,35.015 C121.954194,34.6182258 121.567097,34.298871 121.094516,34.0569355 C120.623548,33.8166129 120.062258,33.6956452 119.413871,33.6956452 C118.134839,33.6956452 117.154194,34.0827419 116.475161,34.8585484 C115.792903,35.6343548 115.378387,36.7133871 115.233226,38.0956452 L123.184839,38.0956452 Z" id="Fill-285" fill="#807F83"></path>
                    <path d="M129.372097,31.5901613 C129.602742,31.5482258 129.82371,31.5159677 130.033387,31.495 C130.243065,31.4756452 130.462419,31.4643548 130.693065,31.4643548 C130.92371,31.4643548 131.154355,31.4756452 131.383387,31.495 C131.614032,31.5159677 131.825323,31.5482258 132.012419,31.5901613 C132.076935,31.9046774 132.138226,32.3175806 132.201129,32.8320968 C132.264032,33.345 132.29629,33.778871 132.29629,34.1369355 C132.735,33.4240323 133.317258,32.8046774 134.039839,32.2820968 C134.764032,31.7579032 135.691452,31.495 136.822097,31.495 C136.989839,31.495 137.162419,31.5014516 137.341452,31.511129 C137.518871,31.5224194 137.670484,31.5385484 137.79629,31.5579032 C137.838226,31.7466129 137.870484,31.9466129 137.891452,32.1562903 C137.912419,32.3659677 137.922097,32.5853226 137.922097,32.8159677 C137.922097,33.0675806 137.907581,33.3304839 137.875323,33.6014516 C137.843065,33.8740323 137.805968,34.1369355 137.765645,34.3885484 C137.59629,34.345 137.42371,34.3240323 137.24629,34.3240323 L136.822097,34.3240323 C136.255968,34.3240323 135.717258,34.4030645 135.202742,34.561129 C134.689839,34.7175806 134.228548,34.995 133.820484,35.3933871 C133.410806,35.7917742 133.086613,36.3353226 132.84629,37.0272581 C132.604355,37.7191935 132.485,38.6095161 132.485,39.6998387 L132.485,47.7143548 C132.254355,47.7562903 131.997903,47.7869355 131.714032,47.8079032 C131.431774,47.8304839 131.175323,47.8401613 130.944677,47.8401613 C130.714032,47.8401613 130.457581,47.8304839 130.175323,47.8079032 C129.893065,47.7869355 129.62371,47.7562903 129.372097,47.7143548 L129.372097,31.5901613 Z" id="Fill-287" fill="#807F83"></path>
                    <path d="M58.0432258,0.929032258 C58.356129,0.887096774 58.7287097,0.84516129 59.1577419,0.803225806 C59.5883871,0.761290323 60.0383871,0.725806452 60.5109677,0.693548387 C60.9819355,0.661290323 61.4529032,0.635483871 61.9254839,0.614516129 C62.3948387,0.593548387 62.8512903,0.583870968 63.2916129,0.583870968 C64.4432258,0.583870968 65.5383871,0.7 66.5770968,0.929032258 C67.6141935,1.15967742 68.5254839,1.55806452 69.3109677,2.12419355 C70.0964516,2.68870968 70.7206452,3.43870968 71.1819355,4.37096774 C71.6416129,5.30322581 71.8722581,6.47258065 71.8722581,7.87580645 C71.8722581,9.34193548 71.6270968,10.5629032 71.1335484,11.5370968 C70.6416129,12.5129032 69.9916129,13.2935484 69.1851613,13.8790323 C68.3770968,14.466129 67.4609677,14.8806452 66.4351613,15.1209677 C65.4093548,15.3612903 64.3609677,15.4822581 63.2916129,15.4822581 C62.8932258,15.4822581 62.5432258,15.4774194 62.2383871,15.4677419 C61.9351613,15.4564516 61.6045161,15.4290323 61.2496774,15.3887097 L61.2496774,23.5612903 C60.7464516,23.6241935 60.2109677,23.6532258 59.6464516,23.6532258 C59.3948387,23.6532258 59.1270968,23.65 58.8448387,23.6387097 C58.5609677,23.6274194 58.2948387,23.6016129 58.0432258,23.5612903 L58.0432258,0.929032258 Z M61.2496774,12.5903226 C61.5835484,12.633871 61.8787097,12.6645161 62.1287097,12.6854839 C62.3803226,12.7064516 62.7464516,12.716129 63.2303226,12.716129 C63.8787097,12.716129 64.5222581,12.6483871 65.1625806,12.5129032 C65.8012903,12.3758065 66.3722581,12.1290323 66.8754839,11.7725806 C67.3770968,11.416129 67.7803226,10.9306452 68.0851613,10.3112903 C68.39,9.69354839 68.5416129,8.89193548 68.5416129,7.90645161 C68.5416129,7.0483871 68.4093548,6.32419355 68.1480645,5.73870968 C67.8867742,5.1516129 67.523871,4.68064516 67.0641935,4.32258065 C66.6012903,3.96774194 66.0464516,3.71612903 65.3980645,3.56774194 C64.7464516,3.42258065 64.0448387,3.35 63.2916129,3.35 C62.5158065,3.35 61.8351613,3.38064516 61.2496774,3.44354839 L61.2496774,12.5903226 Z" id="Fill-289" fill="#807F83"></path>
                    <path d="M73.9391935,7.43467742 C74.1698387,7.39274194 74.3891935,7.36209677 74.598871,7.34112903 C74.8085484,7.32016129 75.0279032,7.31048387 75.2601613,7.31048387 C75.4891935,7.31048387 75.7198387,7.32016129 75.9504839,7.34112903 C76.1795161,7.36209677 76.3908065,7.39274194 76.5795161,7.43467742 C76.6424194,7.74919355 76.7053226,8.16370968 76.7682258,8.6766129 C76.8295161,9.19112903 76.8617742,9.625 76.8617742,9.98145161 C77.3020968,9.26854839 77.8827419,8.65080645 78.6069355,8.12822581 C79.3295161,7.60403226 80.2569355,7.34112903 81.3875806,7.34112903 C81.5569355,7.34112903 81.7279032,7.34596774 81.9069355,7.35725806 C82.0843548,7.36854839 82.2359677,7.38306452 82.3633871,7.40403226 C82.4053226,7.59274194 82.4359677,7.79274194 82.4569355,8.00241935 C82.4779032,8.21048387 82.4875806,8.43145161 82.4875806,8.66209677 C82.4875806,8.91370968 82.4714516,9.175 82.4408065,9.44758065 C82.4101613,9.72016129 82.3730645,9.98145161 82.331129,10.2330645 C82.1633871,10.191129 81.9908065,10.1701613 81.8133871,10.1701613 L81.3875806,10.1701613 C80.8230645,10.1701613 80.2827419,10.2475806 79.7698387,10.4056452 C79.2553226,10.5637097 78.7956452,10.841129 78.3859677,11.2395161 C77.9779032,11.6379032 77.6520968,12.1814516 77.4117742,12.8733871 C77.1714516,13.5653226 77.0504839,14.4572581 77.0504839,15.5443548 L77.0504839,23.5604839 C76.8198387,23.6024194 76.5633871,23.6330645 76.2795161,23.6540323 C75.9972581,23.6766129 75.7408065,23.6862903 75.5101613,23.6862903 C75.2795161,23.6862903 75.0230645,23.6766129 74.7408065,23.6540323 C74.4585484,23.6330645 74.1908065,23.6024194 73.9391935,23.5604839 L73.9391935,7.43467742 Z" id="Fill-291" fill="#807F83"></path>
                    <path d="M86.2603226,9.88758065 L84.2167742,9.88758065 C84.1732258,9.71983871 84.1441935,9.52629032 84.1232258,9.30693548 C84.1006452,9.08596774 84.0909677,8.87145161 84.0909677,8.66177419 C84.0909677,8.45209677 84.1006452,8.23758065 84.1232258,8.0166129 C84.1441935,7.79725806 84.1732258,7.60370968 84.2167742,7.43435484 L89.3087097,7.43435484 L89.3087097,23.5601613 C89.0780645,23.6020968 88.8216129,23.6327419 88.5377419,23.6537097 C88.2554839,23.6762903 87.9990323,23.6859677 87.77,23.6859677 C87.5587097,23.6859677 87.3119355,23.6762903 87.0296774,23.6537097 C86.7474194,23.6327419 86.4893548,23.6020968 86.2603226,23.5601613 L86.2603226,9.88758065 Z M85.5683871,3.88274194 C85.5264516,3.63274194 85.5006452,3.36016129 85.4893548,3.0666129 C85.4780645,2.77306452 85.4748387,2.51177419 85.4748387,2.28112903 C85.4748387,2.05048387 85.4780645,1.78919355 85.4893548,1.49564516 C85.5006452,1.20209677 85.5264516,0.940806452 85.5683871,0.708548387 C85.8409677,0.666612903 86.1329032,0.635967742 86.4474194,0.615 C86.7619355,0.594032258 87.0345161,0.584354839 87.2651613,0.584354839 C87.4958065,0.584354839 87.77,0.594032258 88.0829032,0.615 C88.3974194,0.635967742 88.6796774,0.666612903 88.9312903,0.708548387 C88.9732258,0.940806452 89.0006452,1.20209677 89.0103226,1.49564516 C89.02,1.78919355 89.0264516,2.05048387 89.0264516,2.28112903 C89.0264516,2.51177419 89.02,2.77306452 89.0103226,3.0666129 C89.0006452,3.36016129 88.9732258,3.63274194 88.9312903,3.88274194 C88.6796774,3.92629032 88.4022581,3.95693548 88.0990323,3.97790323 C87.7958065,3.99887097 87.5264516,4.01016129 87.2974194,4.01016129 C87.0458065,4.01016129 86.7619355,3.99887097 86.4474194,3.97790323 C86.1329032,3.95693548 85.8409677,3.92629032 85.5683871,3.88274194 Z" id="Fill-293" fill="#807F83"></path>
                    <path d="M92.0622581,7.43467742 C92.2929032,7.39274194 92.5187097,7.36209677 92.7380645,7.34112903 C92.9590323,7.32016129 93.1848387,7.31048387 93.413871,7.31048387 C93.6445161,7.31048387 93.8590323,7.32016129 94.0590323,7.34112903 C94.2574194,7.36209677 94.4719355,7.39274194 94.7025806,7.43467742 C94.7654839,7.74919355 94.8283871,8.16370968 94.8929032,8.6766129 C94.9541935,9.19112903 94.9864516,9.625 94.9864516,9.98145161 C95.1735484,9.60403226 95.4090323,9.24274194 95.6945161,8.89596774 C95.9767742,8.55080645 96.3106452,8.24112903 96.6993548,7.96854839 C97.0864516,7.69758065 97.5316129,7.47822581 98.0348387,7.31048387 C98.5380645,7.14112903 99.0929032,7.05887097 99.7009677,7.05887097 C100.957419,7.05887097 101.926774,7.31532258 102.609032,7.82822581 C103.288065,8.34112903 103.807419,9.06048387 104.163871,9.98145161 C104.373548,9.625 104.63,9.26854839 104.933226,8.91370968 C105.238065,8.55725806 105.578387,8.24112903 105.955806,7.96854839 C106.333226,7.69758065 106.762258,7.47822581 107.244516,7.31048387 C107.726774,7.14112903 108.271935,7.05887097 108.88,7.05887097 C110.742903,7.05887097 112.099355,7.58306452 112.949355,8.63145161 C113.799355,9.6766129 114.223548,11.2282258 114.223548,13.2830645 L114.223548,23.5604839 C113.992903,23.6024194 113.73,23.6330645 113.436452,23.6540323 C113.142903,23.6766129 112.881613,23.6862903 112.650968,23.6862903 C112.420323,23.6862903 112.163871,23.6766129 111.88,23.6540323 C111.597742,23.6330645 111.34129,23.6024194 111.110645,23.5604839 L111.110645,14.1927419 C111.110645,12.7491935 110.89129,11.6637097 110.450968,10.941129 C110.010645,10.2169355 109.288065,9.85564516 108.281613,9.85564516 C107.212258,9.85564516 106.349355,10.2443548 105.688065,11.0185484 C105.028387,11.7943548 104.697742,12.9362903 104.697742,14.4459677 L104.697742,23.5604839 C104.46871,23.6024194 104.210645,23.6330645 103.928387,23.6540323 C103.646129,23.6766129 103.388065,23.6862903 103.157419,23.6862903 C102.926774,23.6862903 102.671935,23.6766129 102.388065,23.6540323 C102.105806,23.6330645 101.847742,23.6024194 101.61871,23.5604839 L101.61871,13.9733871 C101.61871,12.5701613 101.409032,11.5169355 100.989677,10.8153226 C100.570323,10.1137097 99.8993548,9.76209677 98.9783871,9.76209677 C98.4541935,9.76209677 97.9606452,9.8766129 97.5009677,10.1072581 C97.0380645,10.3379032 96.6364516,10.6830645 96.2896774,11.1443548 C95.946129,11.6056452 95.6719355,12.1862903 95.4735484,12.8895161 C95.2735484,13.591129 95.1735484,14.4040323 95.1735484,15.3266129 L95.1735484,23.5604839 C94.9445161,23.6024194 94.6864516,23.6330645 94.4041935,23.6540323 C94.1219355,23.6766129 93.8654839,23.6862903 93.6348387,23.6862903 C93.4041935,23.6862903 93.1429032,23.6766129 92.8493548,23.6540323 C92.5541935,23.6330645 92.2929032,23.6024194 92.0622581,23.5604839 L92.0622581,7.43467742 Z" id="Fill-295" fill="#807F83"></path>
                    <path d="M125.780806,12.9367742 C125.780806,11.6996774 125.46629,10.84 124.837258,10.3577419 C124.208226,9.87709677 123.296935,9.63516129 122.101774,9.63516129 C121.369516,9.63516129 120.684032,9.69483871 120.04371,9.80774194 C119.405,9.92387097 118.782419,10.0754839 118.172742,10.2641935 C117.775968,9.57225806 117.575968,8.74483871 117.575968,7.78193548 C118.288871,7.55129032 119.074355,7.37225806 119.935645,7.24645161 C120.79371,7.12064516 121.621129,7.05935484 122.417903,7.05935484 C124.511452,7.05935484 126.105,7.53516129 127.19371,8.4883871 C128.284032,9.44322581 128.829194,10.9658065 128.829194,13.0625806 L128.829194,23.1512903 C128.095323,23.3190323 127.205,23.4932258 126.156613,23.6706452 C125.109839,23.8480645 124.040484,23.9383871 122.951774,23.9383871 C121.924355,23.9383871 120.996935,23.8432258 120.169516,23.6545161 C119.340484,23.4658065 118.640484,23.1625806 118.063065,22.7432258 C117.487258,22.323871 117.042097,21.79 116.727581,21.14 C116.413065,20.4916129 116.256613,19.706129 116.256613,18.7819355 C116.256613,17.8819355 116.438871,17.0916129 116.806613,16.4093548 C117.172742,15.7287097 117.671129,15.1641935 118.300161,14.7125806 C118.927581,14.2625806 119.651774,13.9287097 120.467903,13.7077419 C121.287258,13.4867742 122.14371,13.3770968 123.045323,13.3770968 C123.717903,13.3770968 124.267903,13.3916129 124.695323,13.423871 C125.125968,13.456129 125.487258,13.4916129 125.780806,13.5351613 L125.780806,12.9367742 Z M125.780806,15.9851613 C125.46629,15.9432258 125.067903,15.9012903 124.585645,15.8593548 C124.103387,15.8174194 123.695323,15.7964516 123.359839,15.7964516 C122.061452,15.7964516 121.071129,16.0383871 120.390484,16.5190323 C119.709839,17.0029032 119.367903,17.7351613 119.367903,18.7206452 C119.367903,19.3496774 119.484032,19.8416129 119.713065,20.1980645 C119.94371,20.5545161 120.232419,20.8270968 120.577581,21.0141935 C120.924355,21.2029032 121.306613,21.3190323 121.724355,21.3609677 C122.14371,21.4029032 122.54371,21.423871 122.921129,21.423871 C123.401774,21.423871 123.900161,21.3964516 124.414677,21.3432258 C124.925968,21.2916129 125.382419,21.2141935 125.780806,21.1093548 L125.780806,15.9851613 Z" id="Fill-297" fill="#807F83"></path>
                </g>
            </g>
        </g>
    </g>
</svg>