<?xml version="1.0" encoding="UTF-8"?>
<svg id="Ebene_1" data-name="Ebene 1" xmlns="http://www.w3.org/2000/svg" viewBox="0 0 155.91 150.12">
  <defs>
    <style>
      .cls-1 {
        fill: #e30613;
      }

      .cls-1, .cls-2 {
        stroke-width: 0px;
      }

      .cls-2 {
        fill: #fff;
      }
    </style>
  </defs>
  <rect class="cls-2" y="0" width="155.91" height="150.12"/>
  <rect class="cls-1" x="0" width="155.9" height="70.87"/>
  <rect class="cls-1" x="0" y="127.56" width="155.9" height="8.5"/>
  <polygon class="cls-1" points="0 75.12 0 111.4 0 123.31 155.9 123.31 155.9 75.12 0 75.12"/>
  <g>
    <path class="cls-2" d="m25.46,102.33l-8.21-2.41c-4.94-1.48-7.33-2.88-7.33-6.78,0-4.13,3.83-8.1,13.15-8.1,11.4,0,13.31,5.76,13.71,7.86h-8.53c0-1.79-1.99-3.27-5.18-3.27-3.59,0-5.1,1.4-5.1,3.11s1.11,2.18,3.19,2.8l8.29,2.33c5.18,1.48,7.33,3.51,7.33,7.4,0,2.71-1.16,5.03-4.1,6.49h0c-2.05,1.02-4.97,1.61-8.96,1.61-4.28,0-7.31-.57-9.42-1.61h0c-2.77-1.36-3.97-3.52-4.37-6.26h8.45c0,1.79,1.99,3.27,5.02,3.27,3.91,0,5.1-1.64,5.1-3.58,0-1.17-.56-2.18-3.03-2.88"/>
    <polygon class="cls-2" points="37.9 85.35 59.02 85.35 59.02 90.49 52.16 90.49 52.16 111.78 52.16 113.07 44.59 113.07 44.59 111.78 44.59 90.49 37.9 90.49 37.9 85.35"/>
    <path class="cls-2" d="m61.97,85.35h11.72v18.22c0,2.02,0,2.96.64,3.66,1.04,1.09,2.23,1.17,7.65,1.17s6.62-.08,7.65-1.17c.64-.7.64-1.64.64-3.66v-18.22h11.72v18.92c0,5.06-.4,6.23-1.99,7.32-.09.06-.18.12-.27.18h0c-2.41,1.61-4.37,1.61-17.75,1.61s-15.33,0-17.75-1.61c-.09-.06-.18-.12-.26-.18-1.6-1.09-1.99-2.26-1.99-7.32v-18.92Z"/>
    <polygon class="cls-2" points="106.37 111.78 106.37 85.35 113.94 85.35 113.94 107.93 123.03 107.93 123.03 111.78 123.03 113.07 106.37 113.07 106.37 111.78"/>
    <polygon class="cls-2" points="124.94 111.78 124.94 108.48 136.34 90.49 125.58 90.49 125.58 85.35 145.59 85.35 145.59 89.79 134.11 107.93 145.98 107.93 145.98 111.78 145.98 113.07 124.94 113.07 124.94 111.78"/>
  </g>
</svg>